{
  "asset": {
    "generator": "Khronos glTF Blender I/O v1.6.16",
    "version": "2.0"
  },
  "scene": 0,
  "scenes": [
    {
      "name": "Scene",
      "nodes": [
        0
      ]
    }
  ],
  "nodes": [
    {
      "mesh": 0,
      "name": "sphere_gltf"
    }
  ],
  "materials": [
    {
      "doubleSided": true,
      "name": "roof_tiles_14",
      "normalTexture": {
        "index": 0
      },
      "pbrMetallicRoughness": {
        "baseColorTexture": {
          "index": 1
        },
        "metallicFactor": 0,
        "metallicRoughnessTexture": {
          "index": 2
        }
      }
    }
  ],
  "meshes": [
    {
      "name": "Sphere.001",
      "primitives": [
        {
          "attributes": {
            "POSITION": 0,
            "NORMAL": 1,
            "TEXCOORD_0": 2
          },
          "indices": 3,
          "material": 0
        }
      ]
    }
  ],
  "textures": [
    {
      "sampler": 0,
      "source": 0
    },
    {
      "sampler": 0,
      "source": 1
    },
    {
      "sampler": 0,
      "source": 2
    }
  ],
  "images": [
    {
      "mimeType": "image/jpeg",
      "name": "roof_tiles_14_nor_gl_4k",
      "uri": "textures/roof_tiles_14_nor_gl_1k.jpg"
    },
    {
      "mimeType": "image/jpeg",
      "name": "roof_tiles_14_diff_4k",
      "uri": "textures/roof_tiles_14_diff_1k.jpg"
    },
    {
      "mimeType": "image/jpeg",
      "name": "roof_tiles_14_rough_4k",
      "uri": "textures/roof_tiles_14_rough_1k.jpg"
    }
  ],
  "accessors": [
    {
      "bufferView": 0,
      "componentType": 5126,
      "count": 53835,
      "max": [
        0.7676190733909607,
        0.774419903755188,
        0.7676259875297546
      ],
      "min": [
        -0.7676193118095398,
        -0.7692046761512756,
        -0.7676346302032471
      ],
      "type": "VEC3"
    },
    {
      "bufferView": 1,
      "componentType": 5126,
      "count": 53835,
      "type": "VEC3"
    },
    {
      "bufferView": 2,
      "componentType": 5126,
      "count": 53835,
      "type": "VEC2"
    },
    {
      "bufferView": 3,
      "componentType": 5123,
      "count": 322170,
      "type": "SCALAR"
    }
  ],
  "bufferViews": [
    {
      "buffer": 0,
      "byteLength": 646020,
      "byteOffset": 0
    },
    {
      "buffer": 0,
      "byteLength": 646020,
      "byteOffset": 646020
    },
    {
      "buffer": 0,
      "byteLength": 430680,
      "byteOffset": 1292040
    },
    {
      "buffer": 0,
      "byteLength": 644340,
      "byteOffset": 1722720
    }
  ],
  "samplers": [
    {
      "magFilter": 9729,
      "minFilter": 9987
    }
  ],
  "buffers": [
    {
      "byteLength": 2367060,
      "uri": "roof_tiles_14.bin"
    }
  ]
}